<mxfile host="app.diagrams.net" agent="Mozilla/5.0 (Windows NT 10.0; Win64; x64) AppleWebKit/537.36 (KHTML, like Gecko) Chrome/133.0.0.0 Safari/537.36" version="26.1.0">
  <diagram name="Página-1" id="X-GWQhxqYbLFIVZzSWh6">
    <mxGraphModel dx="1173" dy="613" grid="1" gridSize="10" guides="1" tooltips="1" connect="1" arrows="1" fold="1" page="1" pageScale="1" pageWidth="827" pageHeight="1169" math="0" shadow="0">
      <root>
        <mxCell id="0" />
        <mxCell id="1" parent="0" />
        <mxCell id="Ns4pbdS8idHqHeBXB2W1-2" value="Hotel" style="whiteSpace=wrap;html=1;align=center;" vertex="1" parent="1">
          <mxGeometry x="50" y="300" width="100" height="40" as="geometry" />
        </mxCell>
        <mxCell id="Ns4pbdS8idHqHeBXB2W1-3" value="Quarto" style="whiteSpace=wrap;html=1;align=center;" vertex="1" parent="1">
          <mxGeometry x="430" y="297.5" width="100" height="40" as="geometry" />
        </mxCell>
        <mxCell id="Ns4pbdS8idHqHeBXB2W1-5" value="Reserva" style="whiteSpace=wrap;html=1;align=center;" vertex="1" parent="1">
          <mxGeometry x="440" y="486" width="100" height="51" as="geometry" />
        </mxCell>
        <mxCell id="Ns4pbdS8idHqHeBXB2W1-31" value="" style="endArrow=oval;html=1;rounded=0;endFill=1;" edge="1" parent="1">
          <mxGeometry width="50" height="50" relative="1" as="geometry">
            <mxPoint x="50" y="57.25" as="sourcePoint" />
            <mxPoint x="110" y="57.75" as="targetPoint" />
          </mxGeometry>
        </mxCell>
        <mxCell id="Ns4pbdS8idHqHeBXB2W1-32" value="identificacao do hotel (PK)" style="text;html=1;align=center;verticalAlign=middle;whiteSpace=wrap;rounded=0;" vertex="1" parent="1">
          <mxGeometry x="140" y="42.75" width="150" height="30" as="geometry" />
        </mxCell>
        <mxCell id="Ns4pbdS8idHqHeBXB2W1-33" value="" style="endArrow=none;html=1;rounded=0;startArrow=oval;startFill=0;" edge="1" parent="1">
          <mxGeometry width="50" height="50" relative="1" as="geometry">
            <mxPoint x="110" y="97.25" as="sourcePoint" />
            <mxPoint x="50" y="97.25" as="targetPoint" />
          </mxGeometry>
        </mxCell>
        <mxCell id="Ns4pbdS8idHqHeBXB2W1-34" value="nome" style="text;html=1;align=center;verticalAlign=middle;whiteSpace=wrap;rounded=0;" vertex="1" parent="1">
          <mxGeometry x="150" y="87.25" width="60" height="30" as="geometry" />
        </mxCell>
        <mxCell id="Ns4pbdS8idHqHeBXB2W1-35" value="" style="endArrow=none;html=1;rounded=0;startArrow=oval;startFill=0;" edge="1" parent="1">
          <mxGeometry width="50" height="50" relative="1" as="geometry">
            <mxPoint x="110" y="137.25" as="sourcePoint" />
            <mxPoint x="50" y="137.25" as="targetPoint" />
          </mxGeometry>
        </mxCell>
        <mxCell id="Ns4pbdS8idHqHeBXB2W1-36" value="categoria" style="text;html=1;align=center;verticalAlign=middle;whiteSpace=wrap;rounded=0;" vertex="1" parent="1">
          <mxGeometry x="150" y="127.25" width="60" height="30" as="geometry" />
        </mxCell>
        <mxCell id="Ns4pbdS8idHqHeBXB2W1-37" value="" style="endArrow=none;html=1;rounded=0;startArrow=oval;startFill=0;" edge="1" parent="1">
          <mxGeometry width="50" height="50" relative="1" as="geometry">
            <mxPoint x="110" y="177.25" as="sourcePoint" />
            <mxPoint x="50" y="177.25" as="targetPoint" />
          </mxGeometry>
        </mxCell>
        <mxCell id="Ns4pbdS8idHqHeBXB2W1-38" value="telefone" style="text;html=1;align=center;verticalAlign=middle;whiteSpace=wrap;rounded=0;" vertex="1" parent="1">
          <mxGeometry x="150" y="167.25" width="60" height="30" as="geometry" />
        </mxCell>
        <mxCell id="Ns4pbdS8idHqHeBXB2W1-39" value="" style="endArrow=none;html=1;rounded=0;startArrow=oval;startFill=0;" edge="1" parent="1">
          <mxGeometry width="50" height="50" relative="1" as="geometry">
            <mxPoint x="110" y="217.25" as="sourcePoint" />
            <mxPoint x="50" y="217.25" as="targetPoint" />
          </mxGeometry>
        </mxCell>
        <mxCell id="Ns4pbdS8idHqHeBXB2W1-40" value="email" style="text;html=1;align=center;verticalAlign=middle;whiteSpace=wrap;rounded=0;" vertex="1" parent="1">
          <mxGeometry x="150" y="207.25" width="60" height="30" as="geometry" />
        </mxCell>
        <mxCell id="Ns4pbdS8idHqHeBXB2W1-41" value="" style="endArrow=none;html=1;rounded=0;startArrow=oval;startFill=0;" edge="1" parent="1">
          <mxGeometry width="50" height="50" relative="1" as="geometry">
            <mxPoint x="110" y="259.5" as="sourcePoint" />
            <mxPoint x="50" y="259.5" as="targetPoint" />
          </mxGeometry>
        </mxCell>
        <mxCell id="Ns4pbdS8idHqHeBXB2W1-42" value="endereço" style="text;html=1;align=center;verticalAlign=middle;whiteSpace=wrap;rounded=0;" vertex="1" parent="1">
          <mxGeometry x="150" y="249.5" width="60" height="30" as="geometry" />
        </mxCell>
        <mxCell id="Ns4pbdS8idHqHeBXB2W1-43" value="" style="endArrow=none;html=1;rounded=0;startArrow=oval;startFill=0;" edge="1" parent="1">
          <mxGeometry width="50" height="50" relative="1" as="geometry">
            <mxPoint x="320" y="81.75" as="sourcePoint" />
            <mxPoint x="260" y="81.75" as="targetPoint" />
          </mxGeometry>
        </mxCell>
        <mxCell id="Ns4pbdS8idHqHeBXB2W1-44" value="rua" style="text;html=1;align=center;verticalAlign=middle;whiteSpace=wrap;rounded=0;" vertex="1" parent="1">
          <mxGeometry x="330" y="71.75" width="60" height="30" as="geometry" />
        </mxCell>
        <mxCell id="Ns4pbdS8idHqHeBXB2W1-45" value="" style="endArrow=none;html=1;rounded=0;startArrow=oval;startFill=0;" edge="1" parent="1">
          <mxGeometry width="50" height="50" relative="1" as="geometry">
            <mxPoint x="320" y="111.75" as="sourcePoint" />
            <mxPoint x="260" y="111.75" as="targetPoint" />
          </mxGeometry>
        </mxCell>
        <mxCell id="Ns4pbdS8idHqHeBXB2W1-46" value="numero" style="text;html=1;align=center;verticalAlign=middle;whiteSpace=wrap;rounded=0;" vertex="1" parent="1">
          <mxGeometry x="330" y="101.75" width="60" height="30" as="geometry" />
        </mxCell>
        <mxCell id="Ns4pbdS8idHqHeBXB2W1-47" value="" style="endArrow=none;html=1;rounded=0;startArrow=oval;startFill=0;" edge="1" parent="1">
          <mxGeometry width="50" height="50" relative="1" as="geometry">
            <mxPoint x="320" y="140.75" as="sourcePoint" />
            <mxPoint x="260" y="140.75" as="targetPoint" />
          </mxGeometry>
        </mxCell>
        <mxCell id="Ns4pbdS8idHqHeBXB2W1-48" value="complemento" style="text;html=1;align=center;verticalAlign=middle;whiteSpace=wrap;rounded=0;" vertex="1" parent="1">
          <mxGeometry x="340" y="127.25" width="60" height="30" as="geometry" />
        </mxCell>
        <mxCell id="Ns4pbdS8idHqHeBXB2W1-49" value="" style="endArrow=none;html=1;rounded=0;startArrow=oval;startFill=0;" edge="1" parent="1">
          <mxGeometry width="50" height="50" relative="1" as="geometry">
            <mxPoint x="320" y="171.75" as="sourcePoint" />
            <mxPoint x="260" y="171.75" as="targetPoint" />
          </mxGeometry>
        </mxCell>
        <mxCell id="Ns4pbdS8idHqHeBXB2W1-50" value="bairro" style="text;html=1;align=center;verticalAlign=middle;whiteSpace=wrap;rounded=0;" vertex="1" parent="1">
          <mxGeometry x="330" y="161.75" width="60" height="30" as="geometry" />
        </mxCell>
        <mxCell id="Ns4pbdS8idHqHeBXB2W1-51" value="" style="endArrow=none;html=1;rounded=0;startArrow=oval;startFill=0;" edge="1" parent="1">
          <mxGeometry width="50" height="50" relative="1" as="geometry">
            <mxPoint x="320" y="201.75" as="sourcePoint" />
            <mxPoint x="260" y="201.75" as="targetPoint" />
          </mxGeometry>
        </mxCell>
        <mxCell id="Ns4pbdS8idHqHeBXB2W1-52" value="CEP" style="text;html=1;align=center;verticalAlign=middle;whiteSpace=wrap;rounded=0;" vertex="1" parent="1">
          <mxGeometry x="330" y="191.75" width="60" height="30" as="geometry" />
        </mxCell>
        <mxCell id="Ns4pbdS8idHqHeBXB2W1-53" value="" style="endArrow=none;html=1;rounded=0;startArrow=oval;startFill=0;" edge="1" parent="1">
          <mxGeometry width="50" height="50" relative="1" as="geometry">
            <mxPoint x="320" y="231.75" as="sourcePoint" />
            <mxPoint x="260" y="231.75" as="targetPoint" />
          </mxGeometry>
        </mxCell>
        <mxCell id="Ns4pbdS8idHqHeBXB2W1-54" value="cidade" style="text;html=1;align=center;verticalAlign=middle;whiteSpace=wrap;rounded=0;" vertex="1" parent="1">
          <mxGeometry x="330" y="221.75" width="60" height="30" as="geometry" />
        </mxCell>
        <mxCell id="Ns4pbdS8idHqHeBXB2W1-55" value="" style="endArrow=none;html=1;rounded=0;startArrow=oval;startFill=0;" edge="1" parent="1">
          <mxGeometry width="50" height="50" relative="1" as="geometry">
            <mxPoint x="320" y="266.25" as="sourcePoint" />
            <mxPoint x="260" y="266.25" as="targetPoint" />
          </mxGeometry>
        </mxCell>
        <mxCell id="Ns4pbdS8idHqHeBXB2W1-56" value="estado" style="text;html=1;align=center;verticalAlign=middle;whiteSpace=wrap;rounded=0;" vertex="1" parent="1">
          <mxGeometry x="330" y="251.75" width="60" height="30" as="geometry" />
        </mxCell>
        <mxCell id="Ns4pbdS8idHqHeBXB2W1-58" value="" style="endArrow=none;html=1;rounded=0;" edge="1" parent="1">
          <mxGeometry width="50" height="50" relative="1" as="geometry">
            <mxPoint x="260" y="267.25" as="sourcePoint" />
            <mxPoint x="260" y="81.75" as="targetPoint" />
          </mxGeometry>
        </mxCell>
        <mxCell id="Ns4pbdS8idHqHeBXB2W1-59" value="" style="endArrow=none;html=1;rounded=0;" edge="1" parent="1">
          <mxGeometry width="50" height="50" relative="1" as="geometry">
            <mxPoint x="220" y="266.25" as="sourcePoint" />
            <mxPoint x="260" y="266.25" as="targetPoint" />
          </mxGeometry>
        </mxCell>
        <mxCell id="Ns4pbdS8idHqHeBXB2W1-60" value="" style="endArrow=none;html=1;rounded=0;exitX=0;exitY=0;exitDx=0;exitDy=0;" edge="1" parent="1" source="Ns4pbdS8idHqHeBXB2W1-2">
          <mxGeometry width="50" height="50" relative="1" as="geometry">
            <mxPoint x="50" y="287.25" as="sourcePoint" />
            <mxPoint x="50" y="57.25" as="targetPoint" />
          </mxGeometry>
        </mxCell>
        <mxCell id="Ns4pbdS8idHqHeBXB2W1-61" value="Hospede" style="whiteSpace=wrap;html=1;align=center;" vertex="1" parent="1">
          <mxGeometry x="775" y="484.5" width="110" height="50" as="geometry" />
        </mxCell>
        <mxCell id="Ns4pbdS8idHqHeBXB2W1-62" value="" style="endArrow=none;html=1;rounded=0;startArrow=oval;startFill=1;" edge="1" parent="1">
          <mxGeometry width="50" height="50" relative="1" as="geometry">
            <mxPoint x="825" y="324.5" as="sourcePoint" />
            <mxPoint x="775" y="325" as="targetPoint" />
          </mxGeometry>
        </mxCell>
        <mxCell id="Ns4pbdS8idHqHeBXB2W1-63" value="CPF (PK)" style="text;html=1;align=center;verticalAlign=middle;whiteSpace=wrap;rounded=0;" vertex="1" parent="1">
          <mxGeometry x="835" y="314.5" width="120" height="30" as="geometry" />
        </mxCell>
        <mxCell id="Ns4pbdS8idHqHeBXB2W1-64" value="" style="endArrow=none;html=1;rounded=0;startArrow=oval;startFill=0;" edge="1" parent="1">
          <mxGeometry width="50" height="50" relative="1" as="geometry">
            <mxPoint x="825" y="354.5" as="sourcePoint" />
            <mxPoint x="775" y="355" as="targetPoint" />
          </mxGeometry>
        </mxCell>
        <mxCell id="Ns4pbdS8idHqHeBXB2W1-65" value="nome" style="text;html=1;align=center;verticalAlign=middle;whiteSpace=wrap;rounded=0;" vertex="1" parent="1">
          <mxGeometry x="825" y="340" width="120" height="30" as="geometry" />
        </mxCell>
        <mxCell id="Ns4pbdS8idHqHeBXB2W1-66" value="" style="endArrow=none;html=1;rounded=0;startArrow=oval;startFill=0;" edge="1" parent="1">
          <mxGeometry width="50" height="50" relative="1" as="geometry">
            <mxPoint x="825" y="384.5" as="sourcePoint" />
            <mxPoint x="775" y="385" as="targetPoint" />
          </mxGeometry>
        </mxCell>
        <mxCell id="Ns4pbdS8idHqHeBXB2W1-67" value="telefone" style="text;html=1;align=center;verticalAlign=middle;whiteSpace=wrap;rounded=0;" vertex="1" parent="1">
          <mxGeometry x="825" y="370" width="120" height="30" as="geometry" />
        </mxCell>
        <mxCell id="Ns4pbdS8idHqHeBXB2W1-68" value="" style="endArrow=none;html=1;rounded=0;startArrow=oval;startFill=0;" edge="1" parent="1">
          <mxGeometry width="50" height="50" relative="1" as="geometry">
            <mxPoint x="825" y="414.5" as="sourcePoint" />
            <mxPoint x="775" y="415" as="targetPoint" />
          </mxGeometry>
        </mxCell>
        <mxCell id="Ns4pbdS8idHqHeBXB2W1-69" value="email" style="text;html=1;align=center;verticalAlign=middle;whiteSpace=wrap;rounded=0;" vertex="1" parent="1">
          <mxGeometry x="825" y="400" width="120" height="30" as="geometry" />
        </mxCell>
        <mxCell id="Ns4pbdS8idHqHeBXB2W1-70" value="" style="endArrow=none;html=1;rounded=0;exitX=0;exitY=0;exitDx=0;exitDy=0;" edge="1" parent="1" source="Ns4pbdS8idHqHeBXB2W1-61">
          <mxGeometry width="50" height="50" relative="1" as="geometry">
            <mxPoint x="810" y="402.25" as="sourcePoint" />
            <mxPoint x="775" y="324.5" as="targetPoint" />
          </mxGeometry>
        </mxCell>
        <mxCell id="Ns4pbdS8idHqHeBXB2W1-71" value="" style="endArrow=none;html=1;rounded=0;startArrow=oval;startFill=0;" edge="1" parent="1">
          <mxGeometry width="50" height="50" relative="1" as="geometry">
            <mxPoint x="1025" y="294.5" as="sourcePoint" />
            <mxPoint x="975" y="294.5" as="targetPoint" />
          </mxGeometry>
        </mxCell>
        <mxCell id="Ns4pbdS8idHqHeBXB2W1-72" value="" style="endArrow=none;html=1;rounded=0;startArrow=oval;startFill=0;" edge="1" parent="1">
          <mxGeometry width="50" height="50" relative="1" as="geometry">
            <mxPoint x="1025" y="264.5" as="sourcePoint" />
            <mxPoint x="975" y="264" as="targetPoint" />
          </mxGeometry>
        </mxCell>
        <mxCell id="Ns4pbdS8idHqHeBXB2W1-73" value="" style="endArrow=none;html=1;rounded=0;entryX=1;entryY=0.25;entryDx=0;entryDy=0;" edge="1" parent="1">
          <mxGeometry width="50" height="50" relative="1" as="geometry">
            <mxPoint x="975" y="444.5" as="sourcePoint" />
            <mxPoint x="975" y="262" as="targetPoint" />
          </mxGeometry>
        </mxCell>
        <mxCell id="Ns4pbdS8idHqHeBXB2W1-74" value="" style="endArrow=none;html=1;rounded=0;startArrow=oval;startFill=0;" edge="1" parent="1">
          <mxGeometry width="50" height="50" relative="1" as="geometry">
            <mxPoint x="825" y="444" as="sourcePoint" />
            <mxPoint x="775" y="444.5" as="targetPoint" />
          </mxGeometry>
        </mxCell>
        <mxCell id="Ns4pbdS8idHqHeBXB2W1-75" value="endereço" style="text;html=1;align=center;verticalAlign=middle;whiteSpace=wrap;rounded=0;" vertex="1" parent="1">
          <mxGeometry x="825" y="429.5" width="120" height="30" as="geometry" />
        </mxCell>
        <mxCell id="Ns4pbdS8idHqHeBXB2W1-77" value="rua" style="text;html=1;align=center;verticalAlign=middle;whiteSpace=wrap;rounded=0;" vertex="1" parent="1">
          <mxGeometry x="1055" y="249.5" width="60" height="30" as="geometry" />
        </mxCell>
        <mxCell id="Ns4pbdS8idHqHeBXB2W1-78" value="numero" style="text;html=1;align=center;verticalAlign=middle;whiteSpace=wrap;rounded=0;" vertex="1" parent="1">
          <mxGeometry x="1055" y="279.5" width="60" height="30" as="geometry" />
        </mxCell>
        <mxCell id="Ns4pbdS8idHqHeBXB2W1-79" value="complemento" style="text;html=1;align=center;verticalAlign=middle;whiteSpace=wrap;rounded=0;" vertex="1" parent="1">
          <mxGeometry x="1055" y="309.5" width="70" height="30" as="geometry" />
        </mxCell>
        <mxCell id="Ns4pbdS8idHqHeBXB2W1-80" value="bairro" style="text;html=1;align=center;verticalAlign=middle;whiteSpace=wrap;rounded=0;" vertex="1" parent="1">
          <mxGeometry x="1055" y="339.5" width="60" height="30" as="geometry" />
        </mxCell>
        <mxCell id="Ns4pbdS8idHqHeBXB2W1-81" value="CEP" style="text;html=1;align=center;verticalAlign=middle;whiteSpace=wrap;rounded=0;" vertex="1" parent="1">
          <mxGeometry x="1055" y="369.5" width="60" height="30" as="geometry" />
        </mxCell>
        <mxCell id="Ns4pbdS8idHqHeBXB2W1-82" value="" style="endArrow=none;html=1;rounded=0;startArrow=oval;startFill=0;" edge="1" parent="1">
          <mxGeometry width="50" height="50" relative="1" as="geometry">
            <mxPoint x="1025" y="324" as="sourcePoint" />
            <mxPoint x="975" y="324" as="targetPoint" />
          </mxGeometry>
        </mxCell>
        <mxCell id="Ns4pbdS8idHqHeBXB2W1-83" value="" style="endArrow=none;html=1;rounded=0;startArrow=oval;startFill=0;" edge="1" parent="1">
          <mxGeometry width="50" height="50" relative="1" as="geometry">
            <mxPoint x="1025" y="354" as="sourcePoint" />
            <mxPoint x="975" y="354" as="targetPoint" />
          </mxGeometry>
        </mxCell>
        <mxCell id="Ns4pbdS8idHqHeBXB2W1-84" value="" style="endArrow=none;html=1;rounded=0;startArrow=oval;startFill=0;" edge="1" parent="1">
          <mxGeometry width="50" height="50" relative="1" as="geometry">
            <mxPoint x="1025" y="384" as="sourcePoint" />
            <mxPoint x="975" y="384" as="targetPoint" />
          </mxGeometry>
        </mxCell>
        <mxCell id="Ns4pbdS8idHqHeBXB2W1-85" value="" style="endArrow=none;html=1;rounded=0;" edge="1" parent="1">
          <mxGeometry width="50" height="50" relative="1" as="geometry">
            <mxPoint x="925" y="444.5" as="sourcePoint" />
            <mxPoint x="975" y="444.5" as="targetPoint" />
          </mxGeometry>
        </mxCell>
        <mxCell id="Ns4pbdS8idHqHeBXB2W1-86" value="" style="endArrow=none;html=1;rounded=0;startArrow=oval;startFill=0;" edge="1" parent="1">
          <mxGeometry width="50" height="50" relative="1" as="geometry">
            <mxPoint x="1025" y="415" as="sourcePoint" />
            <mxPoint x="975" y="414.5" as="targetPoint" />
          </mxGeometry>
        </mxCell>
        <mxCell id="Ns4pbdS8idHqHeBXB2W1-87" value="" style="endArrow=none;html=1;rounded=0;startArrow=oval;startFill=0;" edge="1" parent="1">
          <mxGeometry width="50" height="50" relative="1" as="geometry">
            <mxPoint x="1025" y="445" as="sourcePoint" />
            <mxPoint x="975" y="444.5" as="targetPoint" />
          </mxGeometry>
        </mxCell>
        <mxCell id="Ns4pbdS8idHqHeBXB2W1-88" value="cidade" style="text;html=1;align=center;verticalAlign=middle;whiteSpace=wrap;rounded=0;" vertex="1" parent="1">
          <mxGeometry x="1055" y="399.5" width="60" height="30" as="geometry" />
        </mxCell>
        <mxCell id="Ns4pbdS8idHqHeBXB2W1-89" value="estado" style="text;html=1;align=center;verticalAlign=middle;whiteSpace=wrap;rounded=0;" vertex="1" parent="1">
          <mxGeometry x="1055" y="429.5" width="60" height="30" as="geometry" />
        </mxCell>
        <mxCell id="Ns4pbdS8idHqHeBXB2W1-90" value="identificaçao da reserva (PK)" style="text;html=1;align=center;verticalAlign=middle;whiteSpace=wrap;rounded=0;" vertex="1" parent="1">
          <mxGeometry x="605" y="560" width="170" height="30" as="geometry" />
        </mxCell>
        <mxCell id="Ns4pbdS8idHqHeBXB2W1-93" value="data da entrada" style="text;html=1;align=center;verticalAlign=middle;whiteSpace=wrap;rounded=0;" vertex="1" parent="1">
          <mxGeometry x="605" y="590" width="90" height="30" as="geometry" />
        </mxCell>
        <mxCell id="Ns4pbdS8idHqHeBXB2W1-94" value="data de saida" style="text;html=1;align=center;verticalAlign=middle;whiteSpace=wrap;rounded=0;" vertex="1" parent="1">
          <mxGeometry x="605" y="624.5" width="90" height="30" as="geometry" />
        </mxCell>
        <mxCell id="Ns4pbdS8idHqHeBXB2W1-95" value="status&amp;nbsp;&lt;div&gt;(ativa, cancelada, concluida)&lt;/div&gt;" style="text;html=1;align=center;verticalAlign=middle;whiteSpace=wrap;rounded=0;" vertex="1" parent="1">
          <mxGeometry x="580" y="653.75" width="185" height="30" as="geometry" />
        </mxCell>
        <mxCell id="Ns4pbdS8idHqHeBXB2W1-96" value="" style="endArrow=none;html=1;rounded=0;startArrow=oval;startFill=1;" edge="1" parent="1">
          <mxGeometry width="50" height="50" relative="1" as="geometry">
            <mxPoint x="575" y="574.5" as="sourcePoint" />
            <mxPoint x="515" y="574.5" as="targetPoint" />
          </mxGeometry>
        </mxCell>
        <mxCell id="Ns4pbdS8idHqHeBXB2W1-97" value="" style="endArrow=none;html=1;rounded=0;startArrow=oval;startFill=0;" edge="1" parent="1">
          <mxGeometry width="50" height="50" relative="1" as="geometry">
            <mxPoint x="575" y="604.5" as="sourcePoint" />
            <mxPoint x="515" y="604.5" as="targetPoint" />
          </mxGeometry>
        </mxCell>
        <mxCell id="Ns4pbdS8idHqHeBXB2W1-98" value="" style="endArrow=none;html=1;rounded=0;startArrow=oval;startFill=0;" edge="1" parent="1">
          <mxGeometry width="50" height="50" relative="1" as="geometry">
            <mxPoint x="575" y="639" as="sourcePoint" />
            <mxPoint x="515" y="639" as="targetPoint" />
          </mxGeometry>
        </mxCell>
        <mxCell id="Ns4pbdS8idHqHeBXB2W1-99" value="" style="endArrow=none;html=1;rounded=0;startArrow=oval;startFill=0;" edge="1" parent="1">
          <mxGeometry width="50" height="50" relative="1" as="geometry">
            <mxPoint x="575" y="669" as="sourcePoint" />
            <mxPoint x="515" y="669" as="targetPoint" />
          </mxGeometry>
        </mxCell>
        <mxCell id="Ns4pbdS8idHqHeBXB2W1-100" value="" style="endArrow=none;html=1;rounded=0;entryX=0.1;entryY=1;entryDx=0;entryDy=0;entryPerimeter=0;" edge="1" parent="1">
          <mxGeometry width="50" height="50" relative="1" as="geometry">
            <mxPoint x="514.33" y="700" as="sourcePoint" />
            <mxPoint x="514.33" y="537" as="targetPoint" />
          </mxGeometry>
        </mxCell>
        <mxCell id="Ns4pbdS8idHqHeBXB2W1-101" value="identificaçao do quarto (PK)" style="text;html=1;align=center;verticalAlign=middle;whiteSpace=wrap;rounded=0;" vertex="1" parent="1">
          <mxGeometry x="525" y="87.25" width="160" height="30" as="geometry" />
        </mxCell>
        <mxCell id="Ns4pbdS8idHqHeBXB2W1-102" value="" style="endArrow=none;html=1;rounded=0;startArrow=oval;startFill=1;" edge="1" parent="1">
          <mxGeometry width="50" height="50" relative="1" as="geometry">
            <mxPoint x="510" y="101.75" as="sourcePoint" />
            <mxPoint x="430" y="101.75" as="targetPoint" />
          </mxGeometry>
        </mxCell>
        <mxCell id="Ns4pbdS8idHqHeBXB2W1-103" value="numero de leitos" style="text;html=1;align=center;verticalAlign=middle;whiteSpace=wrap;rounded=0;" vertex="1" parent="1">
          <mxGeometry x="525" y="117.25" width="110" height="30" as="geometry" />
        </mxCell>
        <mxCell id="Ns4pbdS8idHqHeBXB2W1-104" value="" style="endArrow=none;html=1;rounded=0;startArrow=oval;startFill=0;" edge="1" parent="1">
          <mxGeometry width="50" height="50" relative="1" as="geometry">
            <mxPoint x="510" y="131.75" as="sourcePoint" />
            <mxPoint x="430" y="131.75" as="targetPoint" />
          </mxGeometry>
        </mxCell>
        <mxCell id="Ns4pbdS8idHqHeBXB2W1-105" value="tipo" style="text;html=1;align=center;verticalAlign=middle;whiteSpace=wrap;rounded=0;" vertex="1" parent="1">
          <mxGeometry x="525" y="147.25" width="110" height="30" as="geometry" />
        </mxCell>
        <mxCell id="Ns4pbdS8idHqHeBXB2W1-106" value="" style="endArrow=none;html=1;rounded=0;startArrow=oval;startFill=0;" edge="1" parent="1">
          <mxGeometry width="50" height="50" relative="1" as="geometry">
            <mxPoint x="510" y="161.75" as="sourcePoint" />
            <mxPoint x="430" y="161.75" as="targetPoint" />
          </mxGeometry>
        </mxCell>
        <mxCell id="Ns4pbdS8idHqHeBXB2W1-107" value="preço da diaria" style="text;html=1;align=center;verticalAlign=middle;whiteSpace=wrap;rounded=0;" vertex="1" parent="1">
          <mxGeometry x="525" y="177.25" width="110" height="30" as="geometry" />
        </mxCell>
        <mxCell id="Ns4pbdS8idHqHeBXB2W1-108" value="" style="endArrow=none;html=1;rounded=0;startArrow=oval;startFill=0;" edge="1" parent="1">
          <mxGeometry width="50" height="50" relative="1" as="geometry">
            <mxPoint x="510" y="191.75" as="sourcePoint" />
            <mxPoint x="430" y="191.75" as="targetPoint" />
          </mxGeometry>
        </mxCell>
        <mxCell id="Ns4pbdS8idHqHeBXB2W1-109" value="status" style="text;html=1;align=center;verticalAlign=middle;whiteSpace=wrap;rounded=0;" vertex="1" parent="1">
          <mxGeometry x="520" y="219.5" width="110" height="30" as="geometry" />
        </mxCell>
        <mxCell id="Ns4pbdS8idHqHeBXB2W1-110" value="" style="endArrow=none;html=1;rounded=0;startArrow=oval;startFill=0;" edge="1" parent="1">
          <mxGeometry width="50" height="50" relative="1" as="geometry">
            <mxPoint x="510" y="227.25" as="sourcePoint" />
            <mxPoint x="430" y="227.25" as="targetPoint" />
          </mxGeometry>
        </mxCell>
        <mxCell id="Ns4pbdS8idHqHeBXB2W1-111" value="Pagamento" style="rounded=0;whiteSpace=wrap;html=1;" vertex="1" parent="1">
          <mxGeometry x="280" y="770" width="100" height="40" as="geometry" />
        </mxCell>
        <mxCell id="Ns4pbdS8idHqHeBXB2W1-116" value="identificaçao do pagamento (PK)" style="text;html=1;align=center;verticalAlign=middle;whiteSpace=wrap;rounded=0;" vertex="1" parent="1">
          <mxGeometry x="380" y="832.25" width="180" height="30" as="geometry" />
        </mxCell>
        <mxCell id="Ns4pbdS8idHqHeBXB2W1-117" value="" style="endArrow=none;html=1;rounded=0;startArrow=oval;startFill=1;" edge="1" parent="1">
          <mxGeometry width="50" height="50" relative="1" as="geometry">
            <mxPoint x="360" y="840" as="sourcePoint" />
            <mxPoint x="300" y="840" as="targetPoint" />
          </mxGeometry>
        </mxCell>
        <mxCell id="Ns4pbdS8idHqHeBXB2W1-118" value="" style="endArrow=none;html=1;rounded=0;startArrow=oval;startFill=0;" edge="1" parent="1">
          <mxGeometry width="50" height="50" relative="1" as="geometry">
            <mxPoint x="360" y="880" as="sourcePoint" />
            <mxPoint x="300" y="880" as="targetPoint" />
          </mxGeometry>
        </mxCell>
        <mxCell id="Ns4pbdS8idHqHeBXB2W1-119" value="forma de pagamento (cartao, pix, dinheiro)" style="text;html=1;align=center;verticalAlign=middle;whiteSpace=wrap;rounded=0;" vertex="1" parent="1">
          <mxGeometry x="380" y="865.5" width="130" height="30" as="geometry" />
        </mxCell>
        <mxCell id="Ns4pbdS8idHqHeBXB2W1-120" value="" style="endArrow=none;html=1;rounded=0;startArrow=oval;startFill=0;" edge="1" parent="1">
          <mxGeometry width="50" height="50" relative="1" as="geometry">
            <mxPoint x="360" y="919.5" as="sourcePoint" />
            <mxPoint x="300" y="919.5" as="targetPoint" />
          </mxGeometry>
        </mxCell>
        <mxCell id="Ns4pbdS8idHqHeBXB2W1-121" value="data do pagamento" style="text;html=1;align=center;verticalAlign=middle;whiteSpace=wrap;rounded=0;" vertex="1" parent="1">
          <mxGeometry x="390" y="905.5" width="110" height="30" as="geometry" />
        </mxCell>
        <mxCell id="Ns4pbdS8idHqHeBXB2W1-122" value="" style="endArrow=none;html=1;rounded=0;startArrow=oval;startFill=0;" edge="1" parent="1">
          <mxGeometry width="50" height="50" relative="1" as="geometry">
            <mxPoint x="360" y="955.5" as="sourcePoint" />
            <mxPoint x="300" y="955.5" as="targetPoint" />
          </mxGeometry>
        </mxCell>
        <mxCell id="Ns4pbdS8idHqHeBXB2W1-123" value="valor total" style="text;html=1;align=center;verticalAlign=middle;whiteSpace=wrap;rounded=0;" vertex="1" parent="1">
          <mxGeometry x="380" y="940.5" width="110" height="30" as="geometry" />
        </mxCell>
        <mxCell id="Ns4pbdS8idHqHeBXB2W1-124" value="" style="endArrow=none;html=1;rounded=0;startArrow=oval;startFill=0;" edge="1" parent="1">
          <mxGeometry width="50" height="50" relative="1" as="geometry">
            <mxPoint x="360" y="990.5" as="sourcePoint" />
            <mxPoint x="300" y="990.5" as="targetPoint" />
          </mxGeometry>
        </mxCell>
        <mxCell id="Ns4pbdS8idHqHeBXB2W1-125" value="status (pago/pendente)" style="text;html=1;align=center;verticalAlign=middle;whiteSpace=wrap;rounded=0;" vertex="1" parent="1">
          <mxGeometry x="380" y="975.5" width="110" height="30" as="geometry" />
        </mxCell>
        <mxCell id="Ns4pbdS8idHqHeBXB2W1-126" value="" style="endArrow=none;html=1;rounded=0;" edge="1" parent="1">
          <mxGeometry width="50" height="50" relative="1" as="geometry">
            <mxPoint x="300" y="990" as="sourcePoint" />
            <mxPoint x="300" y="810" as="targetPoint" />
          </mxGeometry>
        </mxCell>
        <mxCell id="Ns4pbdS8idHqHeBXB2W1-127" value="" style="endArrow=none;html=1;rounded=0;exitX=0;exitY=0;exitDx=0;exitDy=0;" edge="1" parent="1" source="Ns4pbdS8idHqHeBXB2W1-3">
          <mxGeometry width="50" height="50" relative="1" as="geometry">
            <mxPoint x="430" y="257" as="sourcePoint" />
            <mxPoint x="430" y="100" as="targetPoint" />
          </mxGeometry>
        </mxCell>
        <mxCell id="Ns4pbdS8idHqHeBXB2W1-137" value="(1:n)" style="text;html=1;align=center;verticalAlign=middle;whiteSpace=wrap;rounded=0;" vertex="1" parent="1">
          <mxGeometry x="390" y="287.25" width="40" height="30" as="geometry" />
        </mxCell>
        <mxCell id="Ns4pbdS8idHqHeBXB2W1-139" value="Funcionario" style="whiteSpace=wrap;html=1;align=center;" vertex="1" parent="1">
          <mxGeometry x="50" y="485.25" width="110" height="50" as="geometry" />
        </mxCell>
        <mxCell id="Ns4pbdS8idHqHeBXB2W1-140" value="" style="endArrow=none;html=1;rounded=0;startArrow=oval;startFill=1;" edge="1" parent="1">
          <mxGeometry width="50" height="50" relative="1" as="geometry">
            <mxPoint x="100" y="575.75" as="sourcePoint" />
            <mxPoint x="50" y="576.25" as="targetPoint" />
          </mxGeometry>
        </mxCell>
        <mxCell id="Ns4pbdS8idHqHeBXB2W1-141" value="CPF (PK)" style="text;html=1;align=center;verticalAlign=middle;whiteSpace=wrap;rounded=0;" vertex="1" parent="1">
          <mxGeometry x="100" y="560" width="110" height="30" as="geometry" />
        </mxCell>
        <mxCell id="Ns4pbdS8idHqHeBXB2W1-142" value="" style="endArrow=none;html=1;rounded=0;startArrow=oval;startFill=0;" edge="1" parent="1">
          <mxGeometry width="50" height="50" relative="1" as="geometry">
            <mxPoint x="100" y="605.75" as="sourcePoint" />
            <mxPoint x="50" y="606.25" as="targetPoint" />
          </mxGeometry>
        </mxCell>
        <mxCell id="Ns4pbdS8idHqHeBXB2W1-143" value="nome" style="text;html=1;align=center;verticalAlign=middle;whiteSpace=wrap;rounded=0;" vertex="1" parent="1">
          <mxGeometry x="90" y="585.5" width="120" height="30" as="geometry" />
        </mxCell>
        <mxCell id="Ns4pbdS8idHqHeBXB2W1-144" value="" style="endArrow=none;html=1;rounded=0;startArrow=oval;startFill=0;" edge="1" parent="1">
          <mxGeometry width="50" height="50" relative="1" as="geometry">
            <mxPoint x="100" y="635.75" as="sourcePoint" />
            <mxPoint x="50" y="636.25" as="targetPoint" />
          </mxGeometry>
        </mxCell>
        <mxCell id="Ns4pbdS8idHqHeBXB2W1-145" value="telefone" style="text;html=1;align=center;verticalAlign=middle;whiteSpace=wrap;rounded=0;" vertex="1" parent="1">
          <mxGeometry x="90" y="615.5" width="120" height="30" as="geometry" />
        </mxCell>
        <mxCell id="Ns4pbdS8idHqHeBXB2W1-146" value="" style="endArrow=none;html=1;rounded=0;startArrow=oval;startFill=0;" edge="1" parent="1">
          <mxGeometry width="50" height="50" relative="1" as="geometry">
            <mxPoint x="100" y="665.75" as="sourcePoint" />
            <mxPoint x="50" y="666.25" as="targetPoint" />
          </mxGeometry>
        </mxCell>
        <mxCell id="Ns4pbdS8idHqHeBXB2W1-147" value="email" style="text;html=1;align=center;verticalAlign=middle;whiteSpace=wrap;rounded=0;" vertex="1" parent="1">
          <mxGeometry x="90" y="645.5" width="120" height="30" as="geometry" />
        </mxCell>
        <mxCell id="Ns4pbdS8idHqHeBXB2W1-148" value="login" style="text;html=1;align=center;verticalAlign=middle;whiteSpace=wrap;rounded=0;" vertex="1" parent="1">
          <mxGeometry x="270" y="615.5" width="120" height="30" as="geometry" />
        </mxCell>
        <mxCell id="Ns4pbdS8idHqHeBXB2W1-149" value="senha" style="text;html=1;align=center;verticalAlign=middle;whiteSpace=wrap;rounded=0;" vertex="1" parent="1">
          <mxGeometry x="270" y="645.5" width="120" height="30" as="geometry" />
        </mxCell>
        <mxCell id="Ns4pbdS8idHqHeBXB2W1-150" value="" style="endArrow=none;html=1;rounded=0;exitX=0;exitY=0;exitDx=0;exitDy=0;" edge="1" parent="1" source="Ns4pbdS8idHqHeBXB2W1-139">
          <mxGeometry width="50" height="50" relative="1" as="geometry">
            <mxPoint x="85" y="653.5" as="sourcePoint" />
            <mxPoint x="50" y="700" as="targetPoint" />
          </mxGeometry>
        </mxCell>
        <mxCell id="Ns4pbdS8idHqHeBXB2W1-151" value="" style="endArrow=none;html=1;rounded=0;startArrow=oval;startFill=0;" edge="1" parent="1">
          <mxGeometry width="50" height="50" relative="1" as="geometry">
            <mxPoint x="290" y="660" as="sourcePoint" />
            <mxPoint x="175" y="660.5" as="targetPoint" />
          </mxGeometry>
        </mxCell>
        <mxCell id="Ns4pbdS8idHqHeBXB2W1-152" value="" style="endArrow=none;html=1;rounded=0;startArrow=oval;startFill=0;" edge="1" parent="1">
          <mxGeometry width="50" height="50" relative="1" as="geometry">
            <mxPoint x="290" y="630" as="sourcePoint" />
            <mxPoint x="220" y="630" as="targetPoint" />
          </mxGeometry>
        </mxCell>
        <mxCell id="Ns4pbdS8idHqHeBXB2W1-153" value="" style="endArrow=none;html=1;rounded=0;" edge="1" parent="1">
          <mxGeometry width="50" height="50" relative="1" as="geometry">
            <mxPoint x="220" y="660" as="sourcePoint" />
            <mxPoint x="220" y="630" as="targetPoint" />
          </mxGeometry>
        </mxCell>
        <mxCell id="Ns4pbdS8idHqHeBXB2W1-157" value="(1:1)" style="text;html=1;align=center;verticalAlign=middle;whiteSpace=wrap;rounded=0;" vertex="1" parent="1">
          <mxGeometry x="150" y="291" width="40" height="30" as="geometry" />
        </mxCell>
        <mxCell id="Ns4pbdS8idHqHeBXB2W1-167" value="Possui" style="rhombus;whiteSpace=wrap;html=1;" vertex="1" parent="1">
          <mxGeometry x="230" y="300" width="90" height="37.5" as="geometry" />
        </mxCell>
        <mxCell id="Ns4pbdS8idHqHeBXB2W1-168" value="" style="endArrow=none;html=1;rounded=0;exitX=1;exitY=0.5;exitDx=0;exitDy=0;entryX=0;entryY=0.5;entryDx=0;entryDy=0;entryPerimeter=0;" edge="1" parent="1" source="Ns4pbdS8idHqHeBXB2W1-167" target="Ns4pbdS8idHqHeBXB2W1-3">
          <mxGeometry width="50" height="50" relative="1" as="geometry">
            <mxPoint x="380" y="350" as="sourcePoint" />
            <mxPoint x="430" y="300" as="targetPoint" />
          </mxGeometry>
        </mxCell>
        <mxCell id="Ns4pbdS8idHqHeBXB2W1-169" value="" style="endArrow=none;html=1;rounded=0;exitX=1;exitY=0.5;exitDx=0;exitDy=0;entryX=0;entryY=0.5;entryDx=0;entryDy=0;" edge="1" parent="1" source="Ns4pbdS8idHqHeBXB2W1-2" target="Ns4pbdS8idHqHeBXB2W1-167">
          <mxGeometry width="50" height="50" relative="1" as="geometry">
            <mxPoint x="180" y="360" as="sourcePoint" />
            <mxPoint x="230" y="310" as="targetPoint" />
          </mxGeometry>
        </mxCell>
        <mxCell id="Ns4pbdS8idHqHeBXB2W1-171" value="Trabalha" style="rhombus;whiteSpace=wrap;html=1;" vertex="1" parent="1">
          <mxGeometry x="55" y="390" width="90" height="37.5" as="geometry" />
        </mxCell>
        <mxCell id="Ns4pbdS8idHqHeBXB2W1-172" value="" style="endArrow=none;html=1;rounded=0;entryX=0.5;entryY=1;entryDx=0;entryDy=0;" edge="1" parent="1" target="Ns4pbdS8idHqHeBXB2W1-2">
          <mxGeometry width="50" height="50" relative="1" as="geometry">
            <mxPoint x="100" y="390" as="sourcePoint" />
            <mxPoint x="150" y="340" as="targetPoint" />
          </mxGeometry>
        </mxCell>
        <mxCell id="Ns4pbdS8idHqHeBXB2W1-173" value="" style="endArrow=none;html=1;rounded=0;" edge="1" parent="1">
          <mxGeometry width="50" height="50" relative="1" as="geometry">
            <mxPoint x="100" y="485" as="sourcePoint" />
            <mxPoint x="100" y="430" as="targetPoint" />
          </mxGeometry>
        </mxCell>
        <mxCell id="Ns4pbdS8idHqHeBXB2W1-174" value="(1:n)" style="text;html=1;align=center;verticalAlign=middle;whiteSpace=wrap;rounded=0;" vertex="1" parent="1">
          <mxGeometry x="100" y="455.25" width="50" height="30" as="geometry" />
        </mxCell>
        <mxCell id="Ns4pbdS8idHqHeBXB2W1-175" value="(1:1)" style="text;html=1;align=center;verticalAlign=middle;whiteSpace=wrap;rounded=0;" vertex="1" parent="1">
          <mxGeometry x="105" y="340" width="40" height="30" as="geometry" />
        </mxCell>
        <mxCell id="Ns4pbdS8idHqHeBXB2W1-177" value="" style="endArrow=none;html=1;rounded=0;entryX=0;entryY=0.5;entryDx=0;entryDy=0;" edge="1" parent="1" source="Ns4pbdS8idHqHeBXB2W1-176" target="Ns4pbdS8idHqHeBXB2W1-5">
          <mxGeometry width="50" height="50" relative="1" as="geometry">
            <mxPoint x="310" y="510" as="sourcePoint" />
            <mxPoint x="360" y="460" as="targetPoint" />
          </mxGeometry>
        </mxCell>
        <mxCell id="Ns4pbdS8idHqHeBXB2W1-178" value="" style="endArrow=none;html=1;rounded=0;exitX=1;exitY=0.5;exitDx=0;exitDy=0;entryX=0;entryY=0.5;entryDx=0;entryDy=0;" edge="1" parent="1" source="Ns4pbdS8idHqHeBXB2W1-139" target="Ns4pbdS8idHqHeBXB2W1-176">
          <mxGeometry width="50" height="50" relative="1" as="geometry">
            <mxPoint x="170" y="560" as="sourcePoint" />
            <mxPoint x="220" y="510" as="targetPoint" />
          </mxGeometry>
        </mxCell>
        <mxCell id="Ns4pbdS8idHqHeBXB2W1-179" value="(1:1)" style="text;html=1;align=center;verticalAlign=middle;whiteSpace=wrap;rounded=0;" vertex="1" parent="1">
          <mxGeometry x="160" y="491.5" width="40" height="20" as="geometry" />
        </mxCell>
        <mxCell id="Ns4pbdS8idHqHeBXB2W1-180" value="(1:n)" style="text;html=1;align=center;verticalAlign=middle;whiteSpace=wrap;rounded=0;" vertex="1" parent="1">
          <mxGeometry x="400" y="491.5" width="40" height="20" as="geometry" />
        </mxCell>
        <mxCell id="Ns4pbdS8idHqHeBXB2W1-181" value="" style="endArrow=none;html=1;rounded=0;entryX=0;entryY=0.5;entryDx=0;entryDy=0;" edge="1" parent="1" target="Ns4pbdS8idHqHeBXB2W1-176">
          <mxGeometry width="50" height="50" relative="1" as="geometry">
            <mxPoint x="310" y="510" as="sourcePoint" />
            <mxPoint x="440" y="512" as="targetPoint" />
          </mxGeometry>
        </mxCell>
        <mxCell id="Ns4pbdS8idHqHeBXB2W1-176" value="Realiza" style="rhombus;whiteSpace=wrap;html=1;" vertex="1" parent="1">
          <mxGeometry x="260" y="491.5" width="90" height="37.5" as="geometry" />
        </mxCell>
        <mxCell id="Ns4pbdS8idHqHeBXB2W1-182" value="Fazem" style="rhombus;whiteSpace=wrap;html=1;" vertex="1" parent="1">
          <mxGeometry x="435" y="390" width="90" height="37.5" as="geometry" />
        </mxCell>
        <mxCell id="Ns4pbdS8idHqHeBXB2W1-183" value="" style="endArrow=none;html=1;rounded=0;exitX=0.387;exitY=0.037;exitDx=0;exitDy=0;exitPerimeter=0;" edge="1" parent="1" source="Ns4pbdS8idHqHeBXB2W1-5">
          <mxGeometry width="50" height="50" relative="1" as="geometry">
            <mxPoint x="480" y="478" as="sourcePoint" />
            <mxPoint x="480" y="427.5" as="targetPoint" />
          </mxGeometry>
        </mxCell>
        <mxCell id="Ns4pbdS8idHqHeBXB2W1-184" value="" style="endArrow=none;html=1;rounded=0;entryX=0.5;entryY=1;entryDx=0;entryDy=0;" edge="1" parent="1" target="Ns4pbdS8idHqHeBXB2W1-3">
          <mxGeometry width="50" height="50" relative="1" as="geometry">
            <mxPoint x="480" y="390" as="sourcePoint" />
            <mxPoint x="530" y="340" as="targetPoint" />
          </mxGeometry>
        </mxCell>
        <mxCell id="Ns4pbdS8idHqHeBXB2W1-185" value="(1:n)" style="text;html=1;align=center;verticalAlign=middle;whiteSpace=wrap;rounded=0;" vertex="1" parent="1">
          <mxGeometry x="480" y="337.5" width="40" height="22" as="geometry" />
        </mxCell>
        <mxCell id="Ns4pbdS8idHqHeBXB2W1-186" value="(1:n)" style="text;html=1;align=center;verticalAlign=middle;whiteSpace=wrap;rounded=0;" vertex="1" parent="1">
          <mxGeometry x="480" y="463.25" width="40" height="22" as="geometry" />
        </mxCell>
        <mxCell id="Ns4pbdS8idHqHeBXB2W1-187" value="Fazem" style="rhombus;whiteSpace=wrap;html=1;" vertex="1" parent="1">
          <mxGeometry x="610" y="492.75" width="90" height="37.5" as="geometry" />
        </mxCell>
        <mxCell id="Ns4pbdS8idHqHeBXB2W1-188" value="" style="endArrow=none;html=1;rounded=0;exitX=1;exitY=0.5;exitDx=0;exitDy=0;entryX=0.045;entryY=0.51;entryDx=0;entryDy=0;entryPerimeter=0;" edge="1" parent="1" source="Ns4pbdS8idHqHeBXB2W1-187" target="Ns4pbdS8idHqHeBXB2W1-61">
          <mxGeometry width="50" height="50" relative="1" as="geometry">
            <mxPoint x="700" y="510" as="sourcePoint" />
            <mxPoint x="770" y="510" as="targetPoint" />
          </mxGeometry>
        </mxCell>
        <mxCell id="Ns4pbdS8idHqHeBXB2W1-189" value="" style="endArrow=none;html=1;rounded=0;exitX=1;exitY=0.5;exitDx=0;exitDy=0;entryX=0;entryY=0.5;entryDx=0;entryDy=0;" edge="1" parent="1" source="Ns4pbdS8idHqHeBXB2W1-5" target="Ns4pbdS8idHqHeBXB2W1-187">
          <mxGeometry width="50" height="50" relative="1" as="geometry">
            <mxPoint x="560" y="560" as="sourcePoint" />
            <mxPoint x="610" y="510" as="targetPoint" />
          </mxGeometry>
        </mxCell>
        <mxCell id="Ns4pbdS8idHqHeBXB2W1-190" value="(1:1)" style="text;html=1;align=center;verticalAlign=middle;whiteSpace=wrap;rounded=0;" vertex="1" parent="1">
          <mxGeometry x="735" y="489.5" width="40" height="22" as="geometry" />
        </mxCell>
        <mxCell id="Ns4pbdS8idHqHeBXB2W1-191" value="(1:n)" style="text;html=1;align=center;verticalAlign=middle;whiteSpace=wrap;rounded=0;" vertex="1" parent="1">
          <mxGeometry x="540" y="489.5" width="40" height="22" as="geometry" />
        </mxCell>
        <mxCell id="Ns4pbdS8idHqHeBXB2W1-192" value="(1:n)" style="text;html=1;align=center;verticalAlign=middle;whiteSpace=wrap;rounded=0;fontColor=#FF0000;" vertex="1" parent="1">
          <mxGeometry x="255" y="270" width="40" height="30" as="geometry" />
        </mxCell>
        <mxCell id="Ns4pbdS8idHqHeBXB2W1-193" value="(1:n)" style="text;html=1;align=center;verticalAlign=middle;whiteSpace=wrap;rounded=0;fontColor=#FF0000;" vertex="1" parent="1">
          <mxGeometry x="530" y="400" width="40" height="22" as="geometry" />
        </mxCell>
        <mxCell id="Ns4pbdS8idHqHeBXB2W1-194" value="(1:n)" style="text;html=1;align=center;verticalAlign=middle;whiteSpace=wrap;rounded=0;fontColor=#FF0000;" vertex="1" parent="1">
          <mxGeometry x="150" y="393.75" width="40" height="30" as="geometry" />
        </mxCell>
        <mxCell id="Ns4pbdS8idHqHeBXB2W1-195" value="(1:n)" style="text;html=1;align=center;verticalAlign=middle;whiteSpace=wrap;rounded=0;fontColor=#FF0000;" vertex="1" parent="1">
          <mxGeometry x="285" y="463.25" width="40" height="30" as="geometry" />
        </mxCell>
        <mxCell id="Ns4pbdS8idHqHeBXB2W1-196" value="(n:1)" style="text;html=1;align=center;verticalAlign=middle;whiteSpace=wrap;rounded=0;fontColor=#FF0000;" vertex="1" parent="1">
          <mxGeometry x="640" y="471.25" width="40" height="22" as="geometry" />
        </mxCell>
        <mxCell id="Ns4pbdS8idHqHeBXB2W1-197" value="" style="endArrow=none;html=1;rounded=0;startArrow=oval;startFill=0;" edge="1" parent="1">
          <mxGeometry width="50" height="50" relative="1" as="geometry">
            <mxPoint x="510" y="260" as="sourcePoint" />
            <mxPoint x="430" y="260" as="targetPoint" />
          </mxGeometry>
        </mxCell>
        <mxCell id="Ns4pbdS8idHqHeBXB2W1-198" value="identificaçao do hotel (FK)" style="text;html=1;align=center;verticalAlign=middle;whiteSpace=wrap;rounded=0;" vertex="1" parent="1">
          <mxGeometry x="525" y="249.5" width="150" height="30" as="geometry" />
        </mxCell>
        <mxCell id="Ns4pbdS8idHqHeBXB2W1-199" value="" style="endArrow=none;html=1;rounded=0;startArrow=oval;startFill=0;" edge="1" parent="1">
          <mxGeometry width="50" height="50" relative="1" as="geometry">
            <mxPoint x="575" y="700.75" as="sourcePoint" />
            <mxPoint x="515" y="700.75" as="targetPoint" />
          </mxGeometry>
        </mxCell>
        <mxCell id="Ns4pbdS8idHqHeBXB2W1-200" value="CPF (FK)" style="text;html=1;align=center;verticalAlign=middle;whiteSpace=wrap;rounded=0;" vertex="1" parent="1">
          <mxGeometry x="605" y="684.5" width="60" height="30" as="geometry" />
        </mxCell>
        <mxCell id="Ns4pbdS8idHqHeBXB2W1-201" value="identificacao do hotel (FK)" style="text;html=1;align=center;verticalAlign=middle;whiteSpace=wrap;rounded=0;" vertex="1" parent="1">
          <mxGeometry x="120" y="683.75" width="150" height="30" as="geometry" />
        </mxCell>
        <mxCell id="Ns4pbdS8idHqHeBXB2W1-202" value="" style="endArrow=none;html=1;rounded=0;startArrow=oval;startFill=0;" edge="1" parent="1">
          <mxGeometry width="50" height="50" relative="1" as="geometry">
            <mxPoint x="100" y="698.08" as="sourcePoint" />
            <mxPoint x="50" y="698.58" as="targetPoint" />
          </mxGeometry>
        </mxCell>
        <mxCell id="Ns4pbdS8idHqHeBXB2W1-203" value="Realiza" style="rhombus;whiteSpace=wrap;html=1;direction=west;" vertex="1" parent="1">
          <mxGeometry x="379.995" y="645.495" width="88.75" height="45" as="geometry" />
        </mxCell>
        <mxCell id="Ns4pbdS8idHqHeBXB2W1-204" value="" style="endArrow=none;html=1;rounded=0;entryX=0.25;entryY=1;entryDx=0;entryDy=0;exitX=0.5;exitY=1;exitDx=0;exitDy=0;" edge="1" parent="1" source="Ns4pbdS8idHqHeBXB2W1-203" target="Ns4pbdS8idHqHeBXB2W1-5">
          <mxGeometry width="50" height="50" relative="1" as="geometry">
            <mxPoint x="430" y="640" as="sourcePoint" />
            <mxPoint x="480" y="610" as="targetPoint" />
          </mxGeometry>
        </mxCell>
        <mxCell id="Ns4pbdS8idHqHeBXB2W1-207" value="" style="endArrow=none;html=1;rounded=0;exitX=0.63;exitY=-0.075;exitDx=0;exitDy=0;exitPerimeter=0;" edge="1" parent="1" source="Ns4pbdS8idHqHeBXB2W1-111">
          <mxGeometry width="50" height="50" relative="1" as="geometry">
            <mxPoint x="360" y="733.75" as="sourcePoint" />
            <mxPoint x="410" y="683.75" as="targetPoint" />
          </mxGeometry>
        </mxCell>
      </root>
    </mxGraphModel>
  </diagram>
</mxfile>
